<mxfile host="app.diagrams.net" modified="2023-06-05T07:01:19.538Z" agent="Mozilla/5.0 (Macintosh; Intel Mac OS X 10_15_7) AppleWebKit/537.36 (KHTML, like Gecko) Chrome/113.0.0.0 Safari/537.36" version="21.3.7" etag="CPqPwhHQXcdPqVvVixGq" type="github">
  <diagram name="Page-1" id="n2hVXIcwFXe4yOeX42LQ">
    <mxGraphModel>
      <root>
        <mxCell id="0" />
        <mxCell id="1" parent="0" />
      </root>
    </mxGraphModel>
  </diagram>
</mxfile>
